<svg id="visual" viewBox="0 0 900 600" width="900" height="600" xmlns="http://www.w3.org/2000/svg" xmlns:xlink="http://www.w3.org/1999/xlink" version="1.1"><rect x="0" y="0" width="900" height="600" fill="#001220"></rect><defs><linearGradient id="grad1_0" x1="33.3%" y1="0%" x2="100%" y2="100%"><stop offset="20%" stop-color="#001220" stop-opacity="1"></stop><stop offset="80%" stop-color="#001220" stop-opacity="1"></stop></linearGradient></defs><defs><linearGradient id="grad2_0" x1="0%" y1="0%" x2="66.7%" y2="100%"><stop offset="20%" stop-color="#001220" stop-opacity="1"></stop><stop offset="80%" stop-color="#001220" stop-opacity="1"></stop></linearGradient></defs><g transform="translate(900, 0)"><path d="M0 486.7C-52.1 449.6 -104.2 412.4 -162.3 391.7C-220.3 371.1 -284.3 367 -335.9 335.9C-387.5 304.8 -426.6 246.7 -449.7 186.3C-472.8 125.8 -479.8 62.9 -486.7 0L0 0Z" fill="#FBAE3C"></path></g><g transform="translate(0, 600)"><path d="M0 -486.7C68.7 -484.5 137.3 -482.3 186.3 -449.7C235.2 -417.1 264.5 -354.2 307.6 -307.6C350.7 -261 407.6 -230.7 439.8 -182.2C471.9 -133.6 479.3 -66.8 486.7 0L0 0Z" fill="#FBAE3C"></path></g></svg>